<mxfile host="app.diagrams.net" agent="Mozilla/5.0 (Windows NT 10.0; Win64; x64) AppleWebKit/537.36 (KHTML, like Gecko) Chrome/134.0.0.0 Safari/537.36" version="26.1.1">
  <diagram name="Page-1" id="qlhtsf8uKjI7vABJdBVo">
    <mxGraphModel dx="1743" dy="1030" grid="1" gridSize="10" guides="1" tooltips="1" connect="1" arrows="1" fold="1" page="1" pageScale="1" pageWidth="827" pageHeight="1169" math="0" shadow="0">
      <root>
        <mxCell id="0" />
        <mxCell id="1" parent="0" />
        <mxCell id="jUVyQ88txQWscTIRFKdD-43" style="edgeStyle=orthogonalEdgeStyle;rounded=0;orthogonalLoop=1;jettySize=auto;html=1;exitX=0.5;exitY=1;exitDx=0;exitDy=0;" edge="1" parent="1" source="8" target="14">
          <mxGeometry relative="1" as="geometry">
            <mxPoint x="538" y="816" as="targetPoint" />
          </mxGeometry>
        </mxCell>
        <mxCell id="8" value="Send notification to chat partner" style="rounded=1;arcSize=20;strokeWidth=2" parent="1" vertex="1">
          <mxGeometry x="422.5" y="620" width="230" height="78" as="geometry" />
        </mxCell>
        <mxCell id="14" value="User types message" style="rhombus;strokeWidth=2;whiteSpace=wrap;" parent="1" vertex="1">
          <mxGeometry x="440.5" y="790" width="194" height="194" as="geometry" />
        </mxCell>
        <mxCell id="jUVyQ88txQWscTIRFKdD-53" style="edgeStyle=orthogonalEdgeStyle;rounded=0;orthogonalLoop=1;jettySize=auto;html=1;exitX=0.5;exitY=1;exitDx=0;exitDy=0;entryX=0.5;entryY=0;entryDx=0;entryDy=0;" edge="1" parent="1" source="15" target="jUVyQ88txQWscTIRFKdD-52">
          <mxGeometry relative="1" as="geometry" />
        </mxCell>
        <mxCell id="jUVyQ88txQWscTIRFKdD-54" style="edgeStyle=orthogonalEdgeStyle;rounded=0;orthogonalLoop=1;jettySize=auto;html=1;exitX=0;exitY=0.5;exitDx=0;exitDy=0;entryX=1;entryY=0.5;entryDx=0;entryDy=0;" edge="1" parent="1" source="15" target="jUVyQ88txQWscTIRFKdD-48">
          <mxGeometry relative="1" as="geometry" />
        </mxCell>
        <mxCell id="jUVyQ88txQWscTIRFKdD-55" style="edgeStyle=orthogonalEdgeStyle;rounded=0;orthogonalLoop=1;jettySize=auto;html=1;exitX=1;exitY=0.5;exitDx=0;exitDy=0;entryX=0;entryY=0.5;entryDx=0;entryDy=0;" edge="1" parent="1" source="15" target="jUVyQ88txQWscTIRFKdD-49">
          <mxGeometry relative="1" as="geometry" />
        </mxCell>
        <mxCell id="15" value="Send message" style="rounded=1;arcSize=20;strokeWidth=2" parent="1" vertex="1">
          <mxGeometry x="473" y="1064" width="129" height="54" as="geometry" />
        </mxCell>
        <mxCell id="35" value="" style="curved=1;startArrow=none;endArrow=block;entryX=0.5;entryY=0;exitX=0.5;exitY=1;exitDx=0;exitDy=0;entryDx=0;entryDy=0;" parent="1" source="14" target="15" edge="1">
          <mxGeometry relative="1" as="geometry">
            <Array as="points" />
            <mxPoint x="635" y="887" as="sourcePoint" />
          </mxGeometry>
        </mxCell>
        <mxCell id="jUVyQ88txQWscTIRFKdD-48" value="User 1" style="rounded=1;arcSize=20;strokeWidth=2" vertex="1" parent="1">
          <mxGeometry x="230" y="1064" width="129" height="54" as="geometry" />
        </mxCell>
        <mxCell id="jUVyQ88txQWscTIRFKdD-49" value="User 2" style="rounded=1;arcSize=20;strokeWidth=2" vertex="1" parent="1">
          <mxGeometry x="720" y="1064" width="129" height="54" as="geometry" />
        </mxCell>
        <mxCell id="jUVyQ88txQWscTIRFKdD-52" value="User ..." style="rounded=1;arcSize=20;strokeWidth=2" vertex="1" parent="1">
          <mxGeometry x="473" y="1180" width="129" height="54" as="geometry" />
        </mxCell>
      </root>
    </mxGraphModel>
  </diagram>
</mxfile>
